<svg xmlns="http://www.w3.org/2000/svg" width="20" height="16" viewBox="0 0 20 16" fill="none">
  <path d="M 10 6.5 L 10 6.5 L 10 6.5 L 10 6.5 L 10 6.5 L 10 6.5 L 10 6.5 L 10 6.5 L 10 6.5 L 10 6.5 L 10 6.5 L 10 6.5 M 0 16 L 0 14 L 10 14 L 10 16 L 0 16 L 0 16 M 3 13 C 2.45 13 1.979 12.804 1.587 12.413 C 1.196 12.021 1 11.55 1 11 L 1 2 C 1 1.45 1.196 0.979 1.587 0.587 C 1.979 0.196 2.45 0 3 0 L 17 0 C 17.55 0 18.021 0.196 18.413 0.587 C 18.804 0.979 19 1.45 19 2 L 3 2 L 3 2 L 3 2 L 3 11 L 3 11 L 3 11 L 10 11 L 10 13 L 3 13 L 3 13 M 18 14 L 18 6 L 18 6 L 18 6 L 14 6 L 14 6 L 14 6 L 14 14 L 14 14 L 14 14 L 18 14 L 18 14 L 18 14 L 18 14 M 13.5 16 C 13.083 16 12.729 15.854 12.438 15.563 C 12.146 15.271 12 14.917 12 14.5 L 12 5.5 C 12 5.083 12.146 4.729 12.438 4.438 C 12.729 4.146 13.083 4 13.5 4 L 18.5 4 C 18.917 4 19.271 4.146 19.563 4.438 C 19.854 4.729 20 5.083 20 5.5 L 20 14.5 C 20 14.917 19.854 15.271 19.563 15.563 C 19.271 15.854 18.917 16 18.5 16 L 13.5 16 L 13.5 16 M 16 8.5 C 16.217 8.5 16.396 8.425 16.538 8.275 C 16.679 8.125 16.75 7.95 16.75 7.75 C 16.75 7.533 16.679 7.354 16.538 7.213 C 16.396 7.071 16.217 7 16 7 C 15.8 7 15.625 7.071 15.475 7.213 C 15.325 7.354 15.25 7.533 15.25 7.75 C 15.25 7.95 15.325 8.125 15.475 8.275 C 15.625 8.425 15.8 8.5 16 8.5 L 16 8.5 M 16 10 L 16 10 L 16 10 L 16 10 L 16 10 L 16 10 L 16 10 L 16 10 L 16 10 L 16 10 L 16 10 L 16 10 L 16 10 L 16 10" fill="currentColor" fill-rule="nonzero"></path>
</svg>