<svg xmlns="http://www.w3.org/2000/svg" width="19" height="18" viewBox="0 0 19 18" fill="none">
  <path d="M 2 16 L 2 16 L 2 16 L 2 16 L 2 16 L 2 16 L 2 16 L 2 16 L 2 2 L 2 2 L 2 2 L 2 2 L 2 2 L 2 2 L 2 2 L 2 2 C 2 2 2 2.371 2 3.112 C 2 3.854 2 4.817 2 6 L 2 12 C 2 13.183 2 14.146 2 14.887 C 2 15.629 2 16 2 16 L 2 16 M 2 18 C 1.45 18 0.979 17.804 0.587 17.413 C 0.196 17.021 0 16.55 0 16 L 0 2 C 0 1.45 0.196 0.979 0.587 0.587 C 0.979 0.196 1.45 0 2 0 L 16 0 C 16.55 0 17.021 0.196 17.413 0.587 C 17.804 0.979 18 1.45 18 2 L 18 4.5 L 16 4.5 L 16 2 L 16 2 L 16 2 L 2 2 L 2 2 L 2 2 L 2 16 L 2 16 L 2 16 L 16 16 L 16 16 L 16 16 L 16 13.5 L 18 13.5 L 18 16 C 18 16.55 17.804 17.021 17.413 17.413 C 17.021 17.804 16.55 18 16 18 L 2 18 L 2 18 M 10 14 C 9.45 14 8.979 13.804 8.587 13.413 C 8.196 13.021 8 12.55 8 12 L 8 6 C 8 5.45 8.196 4.979 8.587 4.588 C 8.979 4.196 9.45 4 10 4 L 17 4 C 17.55 4 18.021 4.196 18.413 4.588 C 18.804 4.979 19 5.45 19 6 L 19 12 C 19 12.55 18.804 13.021 18.413 13.413 C 18.021 13.804 17.55 14 17 14 L 10 14 L 10 14 M 17 12 L 17 12 L 17 12 L 17 6 L 17 6 L 17 6 L 10 6 L 10 6 L 10 6 L 10 12 L 10 12 L 10 12 L 17 12 L 17 12 M 13 10.5 C 13.417 10.5 13.771 10.354 14.063 10.063 C 14.354 9.771 14.5 9.417 14.5 9 C 14.5 8.583 14.354 8.229 14.063 7.938 C 13.771 7.646 13.417 7.5 13 7.5 C 12.583 7.5 12.229 7.646 11.938 7.938 C 11.646 8.229 11.5 8.583 11.5 9 C 11.5 9.417 11.646 9.771 11.938 10.063 C 12.229 10.354 12.583 10.5 13 10.5 L 13 10.5" fill="currentColor" fill-rule="nonzero"></path>
</svg>