<svg xmlns="http://www.w3.org/2000/svg" width="18" height="18" viewBox="0 0 18 18" fill="none">
  <path d="M 4.5 15 C 4.917 15 5.271 14.854 5.563 14.563 C 5.854 14.271 6 13.917 6 13.5 C 6 13.083 5.854 12.729 5.563 12.438 C 5.271 12.146 4.917 12 4.5 12 C 4.083 12 3.729 12.146 3.438 12.438 C 3.146 12.729 3 13.083 3 13.5 C 3 13.917 3.146 14.271 3.438 14.563 C 3.729 14.854 4.083 15 4.5 15 L 4.5 15 M 4.5 6 C 4.917 6 5.271 5.854 5.563 5.563 C 5.854 5.271 6 4.917 6 4.5 C 6 4.083 5.854 3.729 5.563 3.438 C 5.271 3.146 4.917 3 4.5 3 C 4.083 3 3.729 3.146 3.438 3.438 C 3.146 3.729 3 4.083 3 4.5 C 3 4.917 3.146 5.271 3.438 5.563 C 3.729 5.854 4.083 6 4.5 6 L 4.5 6 M 9 10.5 C 9.417 10.5 9.771 10.354 10.063 10.063 C 10.354 9.771 10.5 9.417 10.5 9 C 10.5 8.583 10.354 8.229 10.063 7.938 C 9.771 7.646 9.417 7.5 9 7.5 C 8.583 7.5 8.229 7.646 7.938 7.938 C 7.646 8.229 7.5 8.583 7.5 9 C 7.5 9.417 7.646 9.771 7.938 10.063 C 8.229 10.354 8.583 10.5 9 10.5 L 9 10.5 M 13.5 15 C 13.917 15 14.271 14.854 14.563 14.563 C 14.854 14.271 15 13.917 15 13.5 C 15 13.083 14.854 12.729 14.563 12.438 C 14.271 12.146 13.917 12 13.5 12 C 13.083 12 12.729 12.146 12.438 12.438 C 12.146 12.729 12 13.083 12 13.5 C 12 13.917 12.146 14.271 12.438 14.563 C 12.729 14.854 13.083 15 13.5 15 L 13.5 15 M 13.5 6 C 13.917 6 14.271 5.854 14.563 5.563 C 14.854 5.271 15 4.917 15 4.5 C 15 4.083 14.854 3.729 14.563 3.438 C 14.271 3.146 13.917 3 13.5 3 C 13.083 3 12.729 3.146 12.438 3.438 C 12.146 3.729 12 4.083 12 4.5 C 12 4.917 12.146 5.271 12.438 5.563 C 12.729 5.854 13.083 6 13.5 6 L 13.5 6 M 2 18 C 1.45 18 0.979 17.804 0.587 17.413 C 0.196 17.021 0 16.55 0 16 L 0 2 C 0 1.45 0.196 0.979 0.587 0.587 C 0.979 0.196 1.45 0 2 0 L 16 0 C 16.55 0 17.021 0.196 17.413 0.587 C 17.804 0.979 18 1.45 18 2 L 18 16 C 18 16.55 17.804 17.021 17.413 17.413 C 17.021 17.804 16.55 18 16 18 L 2 18 L 2 18 M 2 16 L 16 16 L 16 16 L 16 16 L 16 2 L 16 2 L 16 2 L 2 2 L 2 2 L 2 2 L 2 16 L 2 16 L 2 16 L 2 16 M 2 2 L 2 2 L 2 2 L 2 2 L 2 16 L 2 16 L 2 16 L 2 16 L 2 16 L 2 16 L 2 2 L 2 2 L 2 2 L 2 2" fill="currentColor" fill-rule="nonzero"></path>
</svg>