<svg xmlns="http://www.w3.org/2000/svg" width="24.962" height="17.500" viewBox="0 0 24.962 17.500" fill="none">
  <path d="M 3.169 17.5 C 2.106 17.5 1.283 17.13 0.7 16.391 C 0.117 15.651 -0.102 14.75 0.044 13.688 L 1.356 4.313 C 1.544 3.063 2.101 2.031 3.028 1.219 C 3.955 0.406 5.044 0 6.294 0 L 18.669 0 C 19.919 0 21.007 0.406 21.934 1.219 C 22.861 2.031 23.419 3.063 23.606 4.313 L 24.919 13.688 C 25.065 14.75 24.846 15.651 24.263 16.391 C 23.679 17.13 22.856 17.5 21.794 17.5 C 21.356 17.5 20.95 17.422 20.575 17.266 C 20.2 17.109 19.856 16.875 19.544 16.563 L 16.731 13.75 L 8.231 13.75 L 5.419 16.563 C 5.106 16.875 4.762 17.109 4.387 17.266 C 4.012 17.422 3.606 17.5 3.169 17.5 L 3.169 17.5 M 3.669 14.813 L 7.231 11.25 L 17.731 11.25 L 21.294 14.813 C 21.335 14.854 21.502 14.917 21.794 15 C 22.023 15 22.205 14.932 22.341 14.797 C 22.476 14.661 22.523 14.479 22.481 14.25 L 21.106 4.625 C 21.023 4.021 20.752 3.516 20.294 3.109 C 19.835 2.703 19.294 2.5 18.669 2.5 L 6.294 2.5 C 5.669 2.5 5.127 2.703 4.669 3.109 C 4.21 3.516 3.94 4.021 3.856 4.625 L 2.481 14.25 C 2.44 14.479 2.486 14.661 2.622 14.797 C 2.757 14.932 2.94 15 3.169 15 C 3.21 15 3.377 14.938 3.669 14.813 L 3.669 14.813 M 18.731 10 C 19.085 10 19.382 9.88 19.622 9.641 C 19.861 9.401 19.981 9.104 19.981 8.75 C 19.981 8.396 19.861 8.099 19.622 7.859 C 19.382 7.62 19.085 7.5 18.731 7.5 C 18.377 7.5 18.08 7.62 17.841 7.859 C 17.601 8.099 17.481 8.396 17.481 8.75 C 17.481 9.104 17.601 9.401 17.841 9.641 C 18.08 9.88 18.377 10 18.731 10 L 18.731 10 M 16.231 6.25 C 16.585 6.25 16.882 6.13 17.122 5.891 C 17.361 5.651 17.481 5.354 17.481 5 C 17.481 4.646 17.361 4.349 17.122 4.109 C 16.882 3.87 16.585 3.75 16.231 3.75 C 15.877 3.75 15.58 3.87 15.341 4.109 C 15.101 4.349 14.981 4.646 14.981 5 C 14.981 5.354 15.101 5.651 15.341 5.891 C 15.58 6.13 15.877 6.25 16.231 6.25 L 16.231 6.25 M 7.169 10 L 9.044 10 L 9.044 7.813 L 11.231 7.813 L 11.231 5.938 L 9.044 5.938 L 9.044 3.75 L 7.169 3.75 L 7.169 5.938 L 4.981 5.938 L 4.981 7.813 L 7.169 7.813 L 7.169 10 L 7.169 10 M 12.481 8.75 L 12.481 8.75 L 12.481 8.75 L 12.481 8.75 L 12.481 8.75 L 12.481 8.75 L 12.481 8.75 L 12.481 8.75 L 12.481 8.75 L 12.481 8.75 L 12.481 8.75 L 12.481 8.75 L 12.481 8.75 L 12.481 8.75 L 12.481 8.75 L 12.481 8.75 L 12.481 8.75 L 12.481 8.75 L 12.481 8.75 L 12.481 8.75" fill="currentColor" fill-rule="nonzero"></path>
</svg>